<svg t="1702887843517" class="icon" viewBox="0 0 1024 1024" version="1.1" xmlns="http://www.w3.org/2000/svg" p-id="1493" width="64" height="64" xmlns:xlink="http://www.w3.org/1999/xlink"><path d="M705.88416 61.44H782.336a81.92 81.92 0 0 1 81.92 81.92v737.28a81.92 81.92 0 0 1-81.92 81.92h-76.45184a81.92 81.92 0 0 1-81.92-81.92V143.36a81.92 81.92 0 0 1 81.92-81.92zM225.28 61.44h76.45184a81.92 81.92 0 0 1 81.92 81.92v737.28a81.92 81.92 0 0 1-81.92 81.92H225.28a81.92 81.92 0 0 1-81.92-81.92V143.36a81.92 81.92 0 0 1 81.92-81.92z" p-id="1494" fill="#ffffff"></path></svg>
